<svg t="1665977530961" class="icon" viewBox="0 0 1024 1024" version="1.1" xmlns="http://www.w3.org/2000/svg" p-id="5756" width="200" height="200">
    <path d="M785 559.4h-81c6.6 0 12 5.4 12 12v232c0 6.6-5.4 12-12 12h81c6.6 0 12-5.4 12-12v-232c0-6.6-5.4-12-12-12z" fill="#1296db" p-id="5757"></path>
    <path d="M716 803.4v-232c0-6.6-5.4-12-12-12H322c-6.6 0-12 5.4-12 12v232c0 6.6 5.4 12 12 12h382c6.6 0 12-5.4 12-12z" fill="#1296db" p-id="5758"></path>
    <path d="M384 431.4V558h29V431.4c0-65.8 49.6-120 113.5-127.2-4.8-0.5-9.6-0.8-14.5-0.8-70.7 0-128 57.3-128 128zM541 239.4c-4.9 0-9.7 0.2-14.5 0.5 99.3 7.4 177.5 90.3 177.5 191.5V558h29V431.4c0-106-85.9-192-192-192z" fill="#1296db" p-id="5759"></path>
    <path d="M526.5 240C427.3 247.4 349 330.3 349 431.4V558h35V431.4c0-70.7 57.3-128 128-128 4.9 0 9.7 0.3 14.5 0.8 4.8-0.5 9.6-0.8 14.5-0.8 70.7 0 128 57.3 128 128V558h35V431.4c0-101.1-78.2-184-177.5-191.4z" fill="#1296db" p-id="5760"></path>
    <path d="M487.2 671.7m-16 0a16 16 0 1 0 32 0 16 16 0 1 0-32 0Z" fill="#1296db" p-id="5761"></path>
    <path d="M455.2 698.4m-16 0a16 16 0 1 0 32 0 16 16 0 1 0-32 0Z" fill="#1296db" p-id="5762"></path>
    <path d="M626.9 698.4m-16 0a16 16 0 1 0 32 0 16 16 0 1 0-32 0Z" fill="#1296db" p-id="5763"></path>
    <path d="M594.9 671.7m-16 0a16 16 0 1 0 32 0 16 16 0 1 0-32 0Z" fill="#1296db" p-id="5764"></path>
    <path d="M566.3 682.4h-50.6c-3.9 0-6.7 3.7-5.8 7.5 1.8 7.5 6.3 14 12.3 18.4 5.3 3.8 11.8 6.1 18.8 6.1s13.5-2.3 18.8-6.1c6.1-4.4 10.5-10.9 12.3-18.4 1-3.9-1.9-7.5-5.8-7.5z" fill="#1296db" p-id="5765"></path>
    <path d="M541 698.4c-7 0-13.3 3.2-17.5 8.2-0.8 0.9-0.5 2.3 0.5 3 4.9 3.1 10.7 4.9 17 4.9 6.2 0 12.1-1.8 17-4.9 1-0.6 1.3-2 0.5-3-4.2-5-10.5-8.2-17.5-8.2z" fill="#1296db" p-id="5766"></path>
    <path d="M842.4 492h-13.6v-13.6c0-3.4-2.8-6.2-6.2-6.2s-6.2 2.8-6.2 6.2V492h-13.6c-3.4 0-6.2 2.8-6.2 6.2 0 3.4 2.8 6.2 6.2 6.2h13.6V518c0 3.4 2.8 6.2 6.2 6.2s6.2-2.8 6.2-6.2v-13.6h13.6c3.4 0 6.2-2.8 6.2-6.2 0-3.4-2.7-6.2-6.2-6.2zM790.1 383.6c11.6 0 21-9.4 21-21s-9.4-21-21-21-21 9.4-21 21 9.4 21 21 21z m0-32c6.1 0 11 4.9 11 11s-4.9 11-11 11-11-4.9-11-11 4.9-11 11-11zM246.6 476.5c-2.3 0-4.2 1.9-4.2 4.2v13.4c0 2.3 1.9 4.2 4.2 4.2 2.3 0 4.2-1.9 4.2-4.2v-13.4c-0.1-2.3-1.9-4.2-4.2-4.2zM246.6 516.6c-2.3 0-4.2 1.9-4.2 4.2v13.4c0 2.3 1.9 4.2 4.2 4.2 2.3 0 4.2-1.9 4.2-4.2v-13.4c-0.1-2.3-1.9-4.2-4.2-4.2zM259 513.9c-1.6-1.6-4.3-1.6-5.9 0-1.6 1.6-1.6 4.3 0 5.9l9.4 9.4c0.8 0.8 1.9 1.2 3 1.2s2.1-0.4 3-1.2c1.6-1.6 1.6-4.3 0-5.9l-9.5-9.4zM230.6 485.6c-1.6-1.6-4.3-1.6-5.9 0-1.6 1.6-1.6 4.3 0 5.9l9.4 9.4c0.8 0.8 1.9 1.2 3 1.2s2.1-0.4 3-1.2c1.6-1.6 1.6-4.3 0-5.9l-9.5-9.4zM234.2 513.9l-9.4 9.4c-1.6 1.6-1.6 4.3 0 5.9 0.8 0.8 1.9 1.2 3 1.2s2.1-0.4 3-1.2l9.4-9.4c1.6-1.6 1.6-4.3 0-5.9-1.8-1.6-4.4-1.6-6 0zM256 502.2c1.1 0 2.1-0.4 3-1.2l9.4-9.4c1.6-1.6 1.6-4.3 0-5.9-1.6-1.6-4.3-1.6-5.9 0l-9.4 9.4c-1.6 1.6-1.6 4.3 0 5.9 0.8 0.7 1.9 1.2 2.9 1.2zM277.5 507.4c0-2.3-1.9-4.2-4.2-4.2h-13.4c-2.3 0-4.2 1.9-4.2 4.2 0 2.3 1.9 4.2 4.2 4.2h13.4c2.3 0 4.2-1.9 4.2-4.2zM237.4 507.4c0-2.3-1.9-4.2-4.2-4.2h-13.4c-2.3 0-4.2 1.9-4.2 4.2 0 2.3 1.9 4.2 4.2 4.2h13.4c2.3 0 4.2-1.9 4.2-4.2z" fill="#1296db" p-id="5767"></path>
    <path d="M293.9 411.4m-8.9 0a8.9 8.9 0 1 0 17.8 0 8.9 8.9 0 1 0-17.8 0Z" fill="#1296db" p-id="5768"></path>
    <path d="M785 549.4h-42v-118c0-111.4-90.6-202-202-202-39.1 0-77 11.2-109.6 32.3-4.6 3-6 9.2-3 13.8 3 4.6 9.2 6 13.8 3 29.4-19 63.6-29.1 98.8-29.1 100.4 0 182 81.6 182 182V548h-44V431.4c0-17.8-3.4-35.2-10-51.6-2.1-5.1-7.9-7.6-13-5.5-5.1 2.1-7.6 7.9-5.5 13 5.6 14 8.5 28.8 8.5 44.1v118H423v-118c0-65.1 52.9-118 118-118 38.3 0 74.4 18.7 96.5 50.1 3.2 4.5 9.4 5.6 13.9 2.4s5.6-9.4 2.4-13.9c-25.9-36.7-68.1-58.6-112.9-58.6-76.1 0-138 61.9-138 138V548h-44V431.4c0-26.2 5.5-51.6 16.2-75.3 2.3-5 0.1-11-5-13.2-5-2.3-11-0.1-13.2 5-12 26.3-18 54.4-18 83.5v118h-42c-12.1 0-22 9.9-22 22v232c0 12.1 9.9 22 22 22h488c12.1 0 22-9.9 22-22v-97c0-5.5-4.5-10-10-10s-10 4.5-10 10v97c0 1.1-0.9 2-2 2H297c-1.1 0-2-0.9-2-2v-232c0-1.1 0.9-2 2-2h488c1.1 0 2 0.9 2 2V666c0 5.5 4.5 10 10 10s10-4.5 10-10v-94.5c0-12.2-9.8-22.1-22-22.1z" fill="#1296db" p-id="5769"></path>
    <path d="M384 320.5c1.8 1.4 4 2.1 6.2 2.1 3 0 5.9-1.3 7.9-3.8 5.1-6.5 10.8-12.8 16.8-18.6 4-3.8 4.1-10.2 0.3-14.1-3.8-4-10.2-4.1-14.1-0.3-6.7 6.4-12.9 13.3-18.6 20.6-3.6 4.4-2.9 10.7 1.5 14.1z" fill="#1296db" p-id="5770"></path>
</svg>